<svg xmlns="http://www.w3.org/2000/svg" style="opacity:0.025" viewBox="630.692 392.327 161.499 164.569"><path fill-rule="evenodd" d="M696.753 417.641c.29-.481.506-.946.566-1.254 1.572-.135 3.151-.08 4.73-.08 1.146 3.682.406 7.58.403 11.355l.845 3.898c.173 2.024-.096 4.057.042 6.081.538-.115 1.371.141 1.55-.57.34-1.479.356-3.02.288-4.528-.077-1.409-.826-2.687-.836-4.106-.124-3.618.359-7.253-.076-10.862-.144-1.118-.699-2.117-1.323-3.033.4-1.351.99-2.668 1.864-3.782.768-.91 2.085-.878 3.167-.753 1.579.266 3.135.871 4.4 1.874.753.599.996 1.607 1.717 2.238 2.603-.269 4.755-2.267 5.787-4.605.55-1.166.938-2.773.064-3.865-1.009-.689-2.338-.589-3.424-1.127 1.265-.894 2.85-.868 4.32-1.092 1.387-.183 2.633-.862 3.869-1.474 3.699-1.867 7.471-3.593 11.055-5.678 1.332-.909 3.039.497 4.39-.422 2.553-1.553 5.643-1.714 8.551-1.646 1.614.099 3.394.176 4.707 1.242.606.426 1.201 1.083 2.012.999 1.3-.076 2.568-.454 3.875-.47 1.156.499 2.088 1.389 3.176 2.02 1.425.987 3.184 1.727 3.997 3.36 1.399 2.542 3.279 4.8 5.444 6.728.833.749 1.851 1.31 2.498 2.251.846 1.189 1.438 2.598 2.62 3.514 2.02 1.533 4.547 2.212 6.594 3.705-.484.989-1.554 1.527-2.021 2.526-.317.894.234 1.784.877 2.37 1.493 1.39 3.139 2.633 4.429 4.221.791.935.638 2.226.82 3.356.295 2.546 2.373 4.477 2.652 7.03.041 2.094-1.176 3.984-1.188 6.075-.058 2.033.297 4.051.224 6.084-.18 4.18-.045 8.529-1.717 12.452-.458 1.146-1.342 2.036-1.966 3.083-.288.875-.157 1.819-.147 2.726.205 3.535.624 7.055 1.159 10.552.179 1.009.336 2.078.948 2.933.749 1.147 1.886 1.999 2.53 3.219-.029.551-.378 1.018-.621 1.498-1.16 1.928-2.354 3.843-3.712 5.64-1.323.048-2.642.032-3.962-.016-.032-6.075-3.116-11.481-4.496-17.264-.855-3.168-1.383-6.553-3.34-9.278-.484-.596-.33-1.396-.333-2.101.103-2.824-.682-5.665-.179-8.473.964-2.066 3.205-3.613 3.119-6.091.967-.237 2.2-.446 2.575-1.528.672-1.781-.052-3.683-.119-5.505 1.361-1.396 2.476-3.286 2.027-5.313-.621-2.93-3.157-4.829-4.8-7.17-.932-1.15.064-2.713-.449-3.968-.765-1.098-2.014-1.758-2.744-2.882-.487-.932-.336-2.047-.74-3.007-.717-.186-1.46-.077-2.184-.042-.093.714.007 1.432.605 1.909.298.932.51 1.947 1.189 2.699.672.763 1.457 1.419 2.203 2.114-.074.957-.304 1.934-.128 2.892 1.239 2.815 4.205 4.541 5.178 7.497.49 1.636-.586 3.036-1.553 4.221-.183-1.499-1.095-2.723-1.781-4.02-.618-1.104-1.342-2.219-2.434-2.904-1.188-.493-2.571-1.041-3.798-.346-.048-.791-.112-1.579-.173-2.367.964-.246 2.088-.265 2.851-.983.528-.525.185-1.278.08-1.896-1.534.731-3.369.833-4.759 1.81-.192 1.572.227 3.132.339 4.698-.355.371-.813.675-1.031 1.149-.192 1.198-.288 2.658.964 3.315.022.221.067.66.09.881-.128.121-.381.368-.506.49-.57 1.463-2.223 2.853-1.483 4.541 1.022 2.123 3.564 2.571 5.278 3.935.637.555 1.79.878 2.35.052 1.457-1.995 2.488-4.26 3.52-6.488.378 1.274.496 2.603.464 3.929-.852.323-1.941.557-1.873 1.697-1.592.529-2.156 2.216-3.049 3.465-.564.878-1.358 1.582-1.915 2.463-.253.599.349 1.006.647 1.438-.084 2.722.49 5.412.371 8.134-.054 1.39.167 2.786-.019 4.176-.131 1.028-.945 1.813-1.127 2.825-.128 1.172-.003 2.373-.308 3.526-.557 2.091-2.402 3.535-2.917 5.649-.612 2.382-1.406 5.034-3.532 6.501-1.778.762-3.799.695-5.566 1.518-.513-.494-.951-1.256-1.749-1.252-1.989-.061-3.961.326-5.924.579-.391-.746-.708-1.659-1.563-1.992-2.248-1.214-5.006.279-7.203-1.085-1.671-.984-3.045-2.594-3.605-4.458-.055-2.021-.92-3.869-1.454-5.784-.625-2.226-1.925-4.173-2.617-6.37-.33-1.156-1.012-2.174-1.995-2.869-.448.362-1.249.842-.765 1.518.976 1.444 1.409 3.142 2.145 4.701 1.438 2.719 2.159 5.733 3.017 8.663-1.031-.071-2.219-.103-2.898-1.015-2.117-2.393-4.019-4.971-5.816-7.609-.676-.951-1.105-2.072-1.899-2.934-.842-.586-1.902-.692-2.869-.954-1.192-1.508-2.521-3.526-4.721-3.315-.102.237-.307.708-.41.942.097.15.292.445.388.592 1.659.5 2.543 2.031 3.612 3.251.827.56 1.903.576 2.847.852 1.198 2.277 2.745 4.345 4.272 6.411 1.457 1.822 2.793 3.792 4.647 5.249 1.361 1.098 2.879 2.017 4.109 3.279 1.665 1.848 3.846 3.219 6.165 4.093 1.258 1.383 3.199 1.406 4.935 1.37-1.003 1.448-1.281 3.193-1.839 4.82-.8 1.528-1.649 3.043-2.671 4.432-1.309 1.605.679 3.843-.541 5.486-1.271 1.87-1.956 4.061-2.251 6.29-.503 2.991-.327 6.126.749 8.976.628 1.633-.035 3.404.321 5.079.326 1.326 1.124 2.495 1.354 3.853.208.784-.25 1.604-.909 2.021-1.041.701-2.345.964-3.584.919-1.623-.068-3.222-1.227-4.826-.429-.977.275-2.882 1.258-1.659 2.379 2.396.852 5.041-.16 7.481.522.823.295 1.685.57 2.399 1.102.205.413.336.864.493 1.306 1.822.948 3.849.048 5.768.109 2.587.903 3.689 3.696 5.815 5.23.186 1.482.436 2.984.231 4.48-.154.913-1.547 1.114-1.826.186-.125-1.169.218-2.328.161-3.501-.228-.086-.686-.259-.916-.345-.161.105-.487.313-.647.416-.519 1.3-.987 2.62-1.502 3.923-.311.961-1.448 1.127-2.316 1.156-4.509.16-8.368-2.889-12.841-2.965-3.091-.077-6.168.438-9.259.269-.983-.081-2.177-.455-2.552-1.47-.308-1.172-.179-2.453.445-3.501-.227-3.18 1.893-5.998 1.694-9.181-1.002-.538-1.633-1.505-1.675-2.645-.778-6.316.497-12.637.714-18.946-.23-.103-.688-.307-.916-.41-.185.106-.56.323-.746.432-.643 5.429-1.153 10.895-1.072 16.371.006 1.704.227 3.411.771 5.031-4.64-.08-9.373.388-13.921-.775-2.213-.57-4.515-1.146-6.805-.807-1.06.522-1.71 1.576-2.674 2.229-.974.737-2.255.638-3.404.714.237-2.116.836-4.281.32-6.401-.461-1.762-2.043-2.866-2.898-4.407-.333-.736-.429-1.55-.583-2.334-.551-3.488-.926-7.007-1.079-10.533.029-.75-.128-1.65.467-2.226 1.192-1.159 2.825-1.861 3.722-3.318.816-1.303 1.847-2.459 3.125-3.33.836-.506.106-1.819-.8-1.505-1.711.65-2.735 2.315-3.776 3.724-.967 1.505-2.78 2.123-3.885 3.494-.727.884-.691 2.104-.672 3.183.256 4.275.567 8.576 1.505 12.762.506 2.338 3.375 3.539 3.228 6.091.077 2.716-.967 5.332-.807 8.051-.061.656.676.951 1.227.765.726-.496.451-1.489.605-2.225 1.37.003 2.821.054 4.08-.59 1.162-.557 1.908-1.678 2.978-2.36 1.611-.122 3.231.141 4.784.557 5.105 1.509 10.485 1.025 15.734 1.051.16-.144.48-.439.641-.586-.49 2.171-1.173 4.291-1.755 6.437-1.073-.849-2.265-1.71-3.693-1.726-3.91-.394-7.42 1.812-11.231 2.19-3.049.234-6.088-.317-9.136-.135-.039.522-.064 1.044-.077 1.573 1.662.298 3.356.25 5.037.343 2.28.064 4.609.214 6.834-.407 2.617-.65 5.163-1.806 7.897-1.822 1.605-.042 2.822 1.085 3.994 2.014-.256 1.765-.436 3.933 1.06 5.226 1.966 1.71 4.762 1.243 7.151 1.147 2.994-.039 6.11-.57 8.996.506 3.292 1.06 6.632 2.712 10.187 2.206 1.242-.118 2.264-.88 3.045-1.809.82.455 1.73 1.098 2.719.759.993-.317 2.082-1.066 2.139-2.207.119-1.495.032-3.003-.128-4.489-.105-.599-.173-1.278-.679-1.682-2.184-1.774-3.545-4.598-6.325-5.575-1.617-.276-3.25.118-4.858.278-.208-1.207-1.22-1.793-2.261-2.206 1.153-.599 2.415-1.303 2.886-2.6.573-1.669-.119-3.389-.839-4.884-.654-1.307-.33-2.793-.33-4.189.086-1.582-.9-2.933-1.086-4.471-.467-3.116-.23-6.379.887-9.338.407-1.159 1.253-2.082 1.781-3.177.231-1.358-.359-2.696-.224-4.051.922-1.566 1.915-3.097 2.767-4.704.618-1.422.82-2.988 1.521-4.381.525-.282 1.047-.577 1.559-.894 2.082.16 4.186.349 6.271.1.922-.247 1.652-.929 2.559-1.224 1.598-.541 3.426-.538 4.8-1.623 1.976-1.685 3.03-4.17 3.619-6.645.435-2.175 2.28-3.661 2.933-5.742.391-1.121.452-2.316.51-3.488-.023-1.041.576-1.941 1.076-2.805.048-.003.147-.007.195-.007.964 2.258 1.329 4.711 2.008 7.062 1.105 4.409 3.212 8.528 3.955 13.03.243 1.432.144 2.905.448 4.327.621.57 1.569.477 2.357.586 1.412-.006 2.918.231 4.256-.33 1.429-1.402 2.364-3.221 3.462-4.884.666-1.239 1.685-2.389 1.851-3.826-.554-2.258-3.247-3.366-3.532-5.762-.618-3.83-1.057-7.692-1.313-11.561-.285-1.556 1.194-2.529 1.742-3.83 1.998-4.169 2.066-8.915 2.107-13.45.074-1.934-.096-3.862-.17-5.793-.153-2.21 1.214-4.176 1.153-6.376.103-2.514-1.659-4.516-2.462-6.767-.394-1.621-.112-3.478-1.221-4.858-1.492-1.912-3.442-3.395-5.21-5.038.692-.711 1.531-1.329 1.966-2.245.365-.941.016-2.123-.858-2.654-1.87-1.192-3.99-1.928-5.857-3.129-1.332-.862-1.867-2.431-2.802-3.638-.73-.99-1.819-1.608-2.719-2.418-1.922-1.739-3.609-3.747-4.868-6.014-1.383-2.78-4.56-3.741-6.831-5.611-1.659-1.505-3.977-.509-5.927-.368-2.034-1.96-4.987-2.312-7.677-2.312-2.972.054-6.11.416-8.662 2.059-.961-.106-1.909-.33-2.873-.333-.942.253-1.707.896-2.552 1.351-3.353 1.819-6.809 3.443-10.216 5.156-1.095.583-2.264 1.07-3.513 1.137-1.96.128-4.032.669-5.361 2.213-.621.544-.484 1.652.262 2.021 1.237.65 2.671.733 3.988 1.165-.51 2.079-1.743 4.058-3.751 4.964-1.726-2.322-4.528-3.606-7.349-3.942-1.707-.189-3.641.362-4.602 1.877-.878 1.383-1.713 2.843-1.992 4.48-1.486.016-3.081-.301-4.467.365-.677.422-1.021 1.076-1.182 1.807-.192.066-.358.18-.482.343-.88 1.15-1.74 2.32-2.58 3.49-.47.65-.91 1.31-1.33 1.99-.43.68-.82 1.39-1.19 2.1-1.08 2.13-2.13 4.28-3.15 6.43-.053.106-.085.22-.083.336-.67.085-1.276.345-1.696.912-1.034 1.409-.765 3.257-1.021 4.894-.26.118-.775.355-1.035.474-.14-.365-.278-.727-.413-1.089-2.094-.256-4.243-.343-6.318.106.09.506.198 1.015.323 1.521 1.381.077 2.767.067 4.154.032-1.345 2.354-2.027 5.159-1.793 7.865.022.948.813 1.499 1.591 1.867-.07 1.611-.147 3.222-.298 4.829-.192 2.031.106 4.061.26 6.085.573 4.826 1.111 9.665 2.056 14.433.381 2.085 1.636 4.058 3.551 5.038 1.989.977 4.048 2.245 6.364 1.796.317 1.054.435 2.521 1.681 2.902 1.947.522 3.993.304 5.982.243 3.436-.275 6.914-.599 10.232-1.582 2.517-.874 3.433-3.641 4.313-5.892.859-2.399 3.232-4.298 2.976-7.03-.039-1.575-1.432-2.558-2.053-3.862.032-2.245 1.057-4.419.676-6.687-.113-.925-.782-1.614-1.403-2.241-.292.326-.874.477-.948.96.15.862.64 1.653.576 2.553.039 2.072-1.028 4.054-.698 6.129.589 1.326 2.21 2.22 2.075 3.827-.48 2.034-2.104 3.536-2.815 5.483-.819 1.822-1.293 4.259-3.375 5.063-2.709.813-5.553 1.038-8.349 1.367-2.152.135-4.333.298-6.472-.003-.483-.836-.503-1.912-1.194-2.623-.689-.65-1.691-.422-2.54-.445-.929.071-1.755-.426-2.575-.775-1.114-.541-2.347-1.028-3.106-2.059-.862-1.073-1.14-2.453-1.368-3.772-.611-3.718-1.159-7.446-1.556-11.193-.272-2.68-.698-5.374-.445-8.073.138-1.909.471-3.837.192-5.746-.355-.541-1.044-.643-1.585-.906-.08-2.053.519-4.035 1.127-5.969 1.387-.513 3.494-.529 3.965-2.242.25-1.473.202-3.007.752-4.419 1.48-.109 2.838-1.426 2.369-1.804.925-1.953 1.877-3.896 2.854-5.823.34-.67.71-1.32 1.1-1.95.41-.64.83-1.27 1.26-1.89.83-1.15 1.68-2.3 2.54-3.43.125-.164.201-.365.213-.569Zm40.929-2.023c-.147-.541.205-1.127.775-1.169.855-.089 1.752-.138 2.591.09.455.371.327.996.407 1.515 5.184 1.815 8.332 7.368 8.332 12.697.013.769-1.012.724-1.534.868-.461-2.174-.522-4.48-1.63-6.469-1.239-2.68-3.596-4.746-6.42-5.607-.093-.442-.189-.884-.273-1.323-.765-.115-1.796.202-2.248-.602Zm31.663.372c.714-.388 1.13-1.499 2.075-1.272.983.513.404 1.72-.279 2.232-.906 1.063-2.398 1.015-3.596 1.493-1.204.922-2.28 2.027-3.215 3.215-1.403 1.909-1.291 4.384-1.778 6.594-.16.682-1.008.576-1.527.711-.298-2.309.176-4.66.957-6.828.82-2.008 2.55-3.423 4.077-4.887.855-.929 2.21-.778 3.286-1.258Zm1.29 26.077c.317.743 1.432.929 2.005.372 1.191-1.022 2.162-2.479 2.28-4.074-.221-.279-.477-.519-.717-.762-1.057 0-2.104-.093-3.148-.205-.157 1.55-1.114 3.129-.42 4.669Zm-33.917-22.917c-.013-.506.148-.986.272-1.47 1.121.026 2.46-.057 3.238.923.522.422.176 1.466-.528 1.383-1.025-.125-2.037-.426-2.982-.836Zm.202 12.906c.24.5.49 1.006.733 1.512-.903 1.547-1.591 3.205-2.45 4.771-.954 1.429-2.866.641-4.252.532 1.652 2.126 4.941 2.825 7.282 1.48 1.995-1.272 2.149-3.959 1.976-6.079-.612-.637-1.352-1.143-1.902-1.841-.461-.131-.929-.256-1.387-.375Zm15.541-2.77c.394-.112.808-.144 1.221-.195.326 1.322-.016 2.767-.747 3.894-.413.077-.832.077-1.245.099-.151-1.303.022-2.693.771-3.798Zm6.008.497c.561.07 1.454-.084 1.576.675.058.762.24 1.739-.455 2.28-1.774.372-1.354-1.892-1.121-2.955Zm-1.755 3.055c-1.671.227-2.024-2.345-.663-2.915.587-.246 1.038.241 1.483.538-.275.791-.541 1.586-.82 2.377Zm-88.346 104.246c-.118.387-.233.775-.346 1.166.148.317.295.637.449.963-.106.183-.317.551-.423.737-.198.032-.599.103-.797.138-.487 1.294-1.265 2.533-1.377 3.936.39 2.145 2.139 3.74 3.846 4.947 2.786 2.034 6.427 1.099 9.562 2.04-.307-3.007-1.002-6.046-.592-9.072.451-.026.909-.045 1.367-.055.401 1.637.343 3.34.561 5.009.246 1.941.438 3.891.608 5.841 1.653.858 3.574.484 5.316 1.022 1.345.461 2.175-1.079 2.78-2.011-.333-2.713-1.204-5.332-1.992-7.942.432-.407.977-.635 1.553-.75 1.067 2.559 1.678 5.284 2.22 7.997.243.864-.125 1.697-.484 2.466.974-.247 1.944-.506 2.924-.737.621-1.114 1.265-2.338 1.262-3.641-.394-1.486-1.297-2.786-1.707-4.272.176-.804 1.367-1.521 1.799-.529.916 1.835 1.426 4.288 3.501 5.176.976-1.076 1.745-2.329 2.783-3.353-.506-.772-.974-1.695-1.887-2.04-1.489-.673-3.256-.83-4.489-1.976-.996-1.195-.061-3.148-1.201-4.263-1.928-.711-4.125-.032-5.992-.97-1.483-.727-2.863-1.797-4.573-1.893-5.009-.544-9.729 1.72-14.671 2.066Zm-4.435 2.238c.227-.003.679-.009.906-.016.151.135.452.404.599.538.099-.329.195-.653.298-.976-.535-.58-1.073-1.156-1.617-1.717-.064.721-.125 1.444-.186 2.171Zm74.438-92.855c.65-.221 1.591-.317 1.713.577.022 4.051-1.941 7.737-3.891 11.167-.72 1.172-1.297 2.485-2.338 3.423-1.659 1.294-3.865 1.531-5.569 2.745-.451.361-1.021.461-1.572.57-.077-.657-.375-1.451.234-1.951 1.988-1.649 5.255-1.473 6.616-3.91 2.306-3.878 4.739-7.964 4.807-12.621Zm19.301 10.149c.778-.583 1.764-.125 2.568.163.833 3.155 1.854 6.255 2.604 9.431.154.657.189 1.336.227 2.012-.24.092-.72.285-.961.377-.169-.108-.512-.329-.682-.438-.691-3.296-1.809-6.479-2.542-9.761-.205 2.408-2.556 3.609-3.385 5.719-.705 1.46-.612 3.119-.971 4.669-1.265.237-2.562.423-3.654 1.163.353.631 1.009 1.236.801 2.03-.275.567-.967.516-1.476.682-.436.779-1.573 1.79-.74 2.671.72.967 1.422 1.947 2.056 2.978 1.639.122 3.337-.211 4.932.289 1.13.618.874 2.305.048 3.077-.692.516-1.57.686-2.354 1.012.349.304.653.714 1.105.887 2.072.148 4.281-.16 5.985-1.447-.224-1.035-.781-2.649.49-3.212 1.118-.785 2.664-.871 3.632-1.861.49-1.768.137-3.888-.993-5.348-1.23-.138-2.469.375-3.68.096-.663-.532-.294-1.582.535-1.633 1.476-.24 3.369-.868 4.576.339 1.349 1.752 1.8 4.119 1.521 6.287-.582 1.864-1.601 3.65-3.083 4.951-1.051.976-2.031 2.088-3.341 2.728-1.585.82-3.407.868-5.149.999-1.15.16-2.133-.599-2.914-1.342-.42-.733-.519-1.607-.769-2.408-1.672-1.29-2.485-3.289-3.773-4.903-.489-.675-1.146-1.396-.992-2.299.105-1.118.9-1.979 1.338-2.966-.067-.582-.275-1.136-.422-1.697 1.213-1.402 2.956-2.19 4.682-2.78.201-1.348.454-2.709 1.06-3.942.65-1.425 1.719-2.587 2.767-3.727.201-.945.137-2.124.954-2.796Zm-23.721 29.488c.935-.15 1.813.551 1.349 1.544-1.096 2.571-3.523 4.246-4.99 6.587-.688.986-1.108 2.123-1.499 3.254-.608-.1-1.639.105-1.466-.843.16-1.694 1.223-3.128 2.2-4.461 1.486-2.014 3.619-3.615 4.406-6.081Zm-48.946 3.369c-.522-.375-.359-1.092-.064-1.553.842-.336 1.476.445 2.104.874 2.251 1.896 4.81 3.382 7.443 4.676 1.441.669 2.891 1.393 4.473 1.655 1.044.192 2.104.032 3.155.045-.083.522.163 1.227-.324 1.601-.467.465-1.175.346-1.764.337-1.765-.157-3.494-.66-5.089-1.419-3.561-1.624-7.007-3.6-9.934-6.216Zm23.577 6.792c-.462-.787.758-1.556 1.354-.97 1.563 1.537 2.732 3.648 4.871 4.48 1.086.196 2.299.138 3.161.955 1.806 1.505 3.971 2.638 5.37 4.579.481.634 1.012 1.233 1.589 1.787 1.941-2.001 3.577-4.429 6.113-5.742 1.563-.829 3.087-1.806 4.846-2.165.711-.352 1.473-.579 2.27-.64.109.243.333.73.442.97-.099.163-.298.487-.397.65-.999.65-2.126.999-3.27 1.278-2.046.9-4.15 1.905-5.668 3.6-1.022 1.015-1.87 2.19-2.921 3.17-.672.65-1.793.704-2.558.192-1.39-.861-1.992-2.511-3.296-3.475-1.207-.928-2.418-1.851-3.641-2.754-.605-.474-1.419-.394-2.126-.534-1.099-.129-1.973-.897-2.809-1.554-1.258-1.13-2.427-2.395-3.33-3.827Zm26.481-75.955c.787-.196 2.036-.34 2.251.711.157.704-.628.88-1.118 1.002-1.54.365-2.872 1.38-3.782 2.658-.515.644-.913 1.467-1.736 1.761-2.373 1.038-4.903 1.912-6.885 3.642-.541.387-.583 1.069-.663 1.671 1.685.138 3.392.17 5.063-.118.759-.141 1.528.006 2.284.109.128.384.259.771.39 1.159 2.524-1.649 5.691-3.302 8.737-2.075-.666-.999-1.323-2.175-2.566-2.514-.573-.279-1.63-.301-1.45-1.204-.048-.878.98-.868 1.588-.711 1.749.362 2.975 1.803 3.859 3.26.099-.673-.218-1.585.461-2.015.477-.163 1.179-.038 1.259.554.147 1.346.042 2.707.032 4.061.49.468 1.306.807 1.355 1.579.032 1.246-.564 2.389-.9 3.564-.609 1.525-1.224 3.113-2.396 4.304-1.098 1.147-1.992 2.601-3.542 3.187-1.21.413-2.312 1.672-3.673 1.185-1.22-.513-2.178-1.464-3.183-2.29-2.136-1.774-2.552-4.868-2.107-7.458-1.454-.33-2.835-1.08-4.346-1.051-.445.234-.769.631-1.124.974.16 1.322.599 2.693.17 4.009-1.153 3.513-.708 7.26-.513 10.879.128 3.09.686 6.209.164 9.29-.065.692-.651 1.79-1.461 1.195-1.524-1.009-2.543-2.601-3.955-3.75-1.748-1.416-3.289-3.068-4.685-4.83-1.367-1.684-.993-4.025-.91-6.033.5.048 1.016.061 1.499.23.308 1.362.048 2.815.529 4.144 1.911 3.03 4.989 5.022 7.34 7.674.256-6.489-1.634-13.111.249-19.484.177-1.332-.326-2.684 0-4.003.301-.82 1.025-1.371 1.64-1.951-.855-.634-1.806-1.469-1.662-2.651.189-1.499 1.476-2.514 2.658-3.286 1.934-1.262 4.09-2.114 6.21-2.997 1.178-1.893 2.863-3.481 4.919-4.381Zm-61.949 20.639c1.419-.646 2.95-1.172 4.522-1.181.612.259.426.986.522 1.514-1.505.474-3.122.667-4.512 1.454-1.441.862-2.328 2.345-3.577 3.424-.987.858-2.2 1.403-3.177 2.277-.666.554-1.281 1.214-2.094 1.553-.846.122-1.701 0-2.546-.035-1.65 1.691-3.911 2.61-5.544 4.32-1.117 1.166-1.883 2.607-2.892 3.862-1.354 1.729-3.202 3.007-4.509 4.781-.842 1.118-1.04 2.537-1.361 3.862-.858 3.581-1.604 7.228-3.138 10.597-.929 1.797.804 4.058-.615 5.694-1.287 1.486-1.496 3.529-2.491 5.172-.84 1.204-2.213 1.845-3.277 2.815-2.43 1.976-3.737 5.063-3.98 8.134-.09 1.531-.852 2.883-1.304 4.317-.65 2.12-.499 4.362-.589 6.549.029 1.726-.343 3.632.653 5.172.048 1.003-.083 2.021.084 3.02.656 1.137 1.931 1.797 2.485 3.007.349 2.047-1.172 3.718-2.197 5.32-.99 1.325-.935 3.071-.855 4.643.205 2.488.605 5.025 1.675 7.305.416 1.06 1.556 1.422 2.549 1.736 4.756 1.479 9.633 2.552 14.539 3.417-.57-1.32-1.124-2.69-2.184-3.699-.894-1.025-2.242-2.123-1.909-3.645.49-1.54 1.963-2.465 3.296-3.221 1.562-.804 3.164-1.582 4.851-2.091.727-.26 1.198.538 1.073 1.188-.897.89-2.219 1.105-3.321 1.655-1.473.699-3.1 1.371-4.067 2.754.042.945.97 1.534 1.518 2.233 1.307 1.233 1.848 2.981 2.674 4.528 1.204.333 2.383.759 3.603 1.037.144-1.812-.368-3.631-.064-5.424.154-1.044 1.915-1.435 2.126-.25.18 1.838.317 3.804 1.537 5.306 1.704-2.21 1.32-5.13 1.775-7.715.134-.787 1.092-1.002 1.767-.922 1.064.026 1.73.964 2.501 1.563.058-.82.042-1.669-.377-2.399-1.618-3.247-2.886-6.67-3.722-10.203-.64-.099-1.287-.179-1.912-.355-.954-.295-1.697-1.035-2.638-1.352-1.291-.112-2.521.439-3.738.785-2.267.797-4.691 1.323-7.096 1.073-.778-.147-.804-1.56.016-1.649 1.156-.231 2.354-.09 3.513-.327 2.174-.413 4.208-1.368 6.395-1.736 1.902-.355 3.26 1.355 4.999 1.778-.243-1.819-.676-3.616-.733-5.454-.115-2.364.394-4.737-.023-7.084-.618-3.436-1.293-7.033-.336-10.469 1.028-4.121 2.415-8.419 5.492-11.487 1.586-1.675 4.301-2.078 5.323-4.301.922-2.392.493-5.098 1.543-7.458 1.035-2.329 2.854-4.16 4.365-6.175.477-.608.91-1.268 1.502-1.777.557-.391 1.249.106 1.371.685-.202.734-.721 1.316-1.166 1.912-1.313 1.685-2.78 3.26-3.888 5.095-1.838 2.866-.65 6.693-2.658 9.486-1.383 2.017-4.035 2.475-5.581 4.314-1.909 2.136-2.985 4.861-3.84 7.557-.535 1.925-1.169 3.875-1.095 5.902-.013 2.329.448 4.622.839 6.911.426 2.601-.337 5.22.044 7.824.503 4.032 1.454 8.012 2.924 11.801.705 1.816 1.589 3.555 2.367 5.338 4.461-.349 8.695-2.248 13.213-2.046 2.018-.077 4.026.468 5.697 1.608 2.101 1.457 4.865.458 7.087 1.55 1.586.973 1.512 3.023 1.579 4.65 1.518.762 3.244 1.028 4.708 1.902 1.857 1.348 3.029 4.153 1.662 6.232-1.669 2.395-4.82 2.969-6.748 5.076-1.133 1.172-2.379 2.434-4.08 2.667-2.715.375-5.018-1.639-7.695-1.671-1.435 0-2.802-.417-4.122-.942-.55-.688-1.127-1.489-2.043-1.684-2.645-.551-5.546-.023-7.987-1.403-2.382-1.316-4.579-3.289-5.54-5.889-.599-1.493.176-2.998.477-4.455-1.662 1.553-1.72 4.253-3.711 5.508-1.474.429-3.046.135-4.548.023-6.072-.839-12.089-2.079-18.001-3.699-1.409-.426-2.857-.794-4.166-1.48-1.15-.624-1.656-1.921-2.101-3.077-1.118-3.203-1.563-6.665-1.207-10.043.23-2.354 2.613-3.779 2.946-6.078-.599-1.227-2.037-1.903-2.53-3.232-.202-1.159.08-2.373-.33-3.497-.612-1.88-.371-3.875-.375-5.812.048-2.504.045-5.095 1.006-7.446.41-.996.836-2.005.887-3.093.33-3.574 1.944-7.126 4.807-9.371 1.079-.986 2.645-1.595 3.135-3.087.612-1.691 1.268-3.372 2.319-4.845.125-1.589-.538-3.264.185-4.775 1.874-4.074 2.53-8.544 3.699-12.836 1.022-3.372 4.474-5.024 6.293-7.874 1.236-1.928 2.677-3.779 4.653-4.996 1.393-.83 2.597-1.912 3.853-2.918.919-.173 1.857.058 2.779-.067.529-.285.955-.73 1.413-1.111 1.127-1.025 2.6-1.601 3.644-2.725 1.131-1.211 2.168-2.598 3.705-3.325Z"/></svg>